<svg width="48" height="48" viewBox="0 0 48 48" fill="none" xmlns="http://www.w3.org/2000/svg">
<rect width="48" height="48" fill="white"/>
<rect x="8" y="4" width="32" height="12" fill="#D9D9D9"/>
<rect x="8" y="16" width="4" height="24" fill="#D9D9D9"/>
<rect x="36" y="16" width="4" height="24" fill="#D9D9D9"/>
<rect x="8" y="40" width="32" height="4" fill="#D9D9D9"/>
<rect x="6" y="44" width="36" height="2" fill="#949494"/>
<rect x="6" y="44" width="36" height="2" fill="#949494"/>
<rect x="6" y="44" width="36" height="2" fill="#949494"/>
<rect x="6" y="2" width="36" height="2" fill="#949494"/>
<rect x="6" y="2" width="36" height="2" fill="#949494"/>
<rect x="6" y="2" width="36" height="2" fill="#949494"/>
<rect x="40" y="4" width="2" height="40" fill="#949494"/>
<rect x="40" y="4" width="2" height="40" fill="#949494"/>
<rect x="40" y="4" width="2" height="40" fill="#949494"/>
<rect x="6" y="4" width="2" height="40" fill="#949494"/>
<rect x="6" y="4" width="2" height="40" fill="#949494"/>
<rect x="6" y="4" width="2" height="40" fill="#949494"/>
</svg>
